<svg xmlns="http://www.w3.org/2000/svg" width="46" height="46" viewBox="0 0 46 46"><defs><style>.a{fill:#001c32;}.a,.b{stroke:#FF0000;stroke-linecap:round;stroke-linejoin:round;}.b{fill:none;}</style></defs><g transform="translate(526.675 423.148)"><circle class="a" cx="22.5" cy="22.5" r="22.5" transform="translate(-526.175 -422.648)"/><g transform="translate(-513.161 -416.564)"><line class="b" x2="18.973" transform="translate(0 3.69)"/><line class="b" x2="6.391" y2="3.69" transform="translate(12.582)"/><line class="b" x1="18.973" transform="translate(0 29.142)"/><line class="b" x1="6.391" y1="3.69" transform="translate(0 29.142)"/></g><g transform="translate(-513.161 -409.634)"><path class="b" d="M-508.44-402.537a26.9,26.9,0,0,1,.182-3.161h-5.963a9.473,9.473,0,0,0-.542,3.161,9.48,9.48,0,0,0,.542,3.163h5.963A26.916,26.916,0,0,1-508.44-402.537Z" transform="translate(514.764 412.022)"/><path class="b" d="M-505.345-411.237a9.489,9.489,0,0,0-8.944,6.324h5.963C-507.892-408.6-506.722-411.237-505.345-411.237Z" transform="translate(514.831 411.237)"/><path class="b" d="M-503.474-404.913h5.963a9.489,9.489,0,0,0-8.944-6.324C-505.078-411.237-503.908-408.6-503.474-404.913Z" transform="translate(515.942 411.237)"/><path class="b" d="M-508.326-400.159h-5.963a9.489,9.489,0,0,0,8.944,6.324C-506.722-393.835-507.892-396.475-508.326-400.159Z" transform="translate(514.831 412.807)"/><path class="b" d="M-497.881-405.7h-5.963a27.148,27.148,0,0,1,.182,3.161,27.169,27.169,0,0,1-.182,3.163h5.963a9.478,9.478,0,0,0,.542-3.163A9.471,9.471,0,0,0-497.881-405.7Z" transform="translate(516.312 412.022)"/><path class="b" d="M-506.455-393.835a9.489,9.489,0,0,0,8.944-6.324h-5.963C-503.908-396.475-505.078-393.835-506.455-393.835Z" transform="translate(515.942 412.807)"/><path class="b" d="M-509.066-404.913h5.962c-.434-3.684-1.6-6.324-2.981-6.324S-508.632-408.6-509.066-404.913Z" transform="translate(515.572 411.237)"/><path class="b" d="M-509.225-402.537a26.916,26.916,0,0,0,.182,3.163h5.962a27.169,27.169,0,0,0,.182-3.163,27.148,27.148,0,0,0-.182-3.161h-5.962A26.9,26.9,0,0,0-509.225-402.537Z" transform="translate(515.549 412.022)"/><path class="b" d="M-503.1-400.159h-5.962c.434,3.684,1.6,6.324,2.981,6.324S-503.538-396.475-503.1-400.159Z" transform="translate(515.572 412.807)"/></g></g></svg>
