<svg xmlns="http://www.w3.org/2000/svg" width="46" height="46" viewBox="0 0 46 46"><defs><style>.a{fill:#001c32;}.a,.b,.c{stroke:#fafaff;stroke-linecap:round;stroke-linejoin:round;}.b,.c{fill:none;}.c{stroke-width:0.604px;}.d{fill:#fafaff;}</style></defs><g transform="translate(724.266 422.588)"><circle class="a" cx="22.5" cy="22.5" r="22.5" transform="translate(-723.766 -422.088)"/><g transform="translate(-703.425 -411.215)"><line class="b" x2="3.424"/><line class="b" x2="3.424"/><line class="b" x1="3.424" transform="translate(0.893)"/><line class="b" x1="3.424" transform="translate(0.893)"/><line class="b" x2="3.424" transform="translate(0 5.07)"/><line class="b" x2="3.424" transform="translate(0 5.07)"/><line class="b" x1="3.424" transform="translate(0.893 5.07)"/><line class="b" x1="3.424" transform="translate(0.893 5.07)"/></g><line class="b" x1="7.022" transform="translate(-704.778 -408.68)"/><path class="c" d="M-714.057-397.151c0,4.534,5.113,8.21,11.418,8.21s11.42-3.676,11.42-8.21" transform="translate(1.372 3.514)"/><path class="c" d="M-714.057-397.151c0,4.534,5.113,8.21,11.418,8.21s11.42-3.676,11.42-8.21" transform="translate(1.372 3.514)"/><path class="c" d="M-691.219-397.151c0,4.534-5.113,8.21-11.42,8.21s-11.418-3.676-11.418-8.21" transform="translate(1.372 3.514)"/><path class="b" d="M-713.09-397.98l6.942-11.731-3.01-5.068h13.039l-3.01,5.068,6.941,11.731h0a6.281,6.281,0,0,1,.968,3.312c0,4.532-5.113,8.207-11.42,8.207s-11.418-3.675-11.418-8.207a6.29,6.29,0,0,1,.967-3.312Z" transform="translate(1.372 1.033)"/><g transform="translate(-710.57 -408.681)"><path class="b" d="M-700.97-410.337c5.268,0,3.737,3.609,5.792,4.8" transform="translate(713.786 410.337)"/><path class="b" d="M-706.406-410.337c-5.268,0-3.737,3.609-5.793,4.8" transform="translate(712.199 410.337)"/></g><g transform="translate(-704.395 -402.414)"><path class="d" d="M-706.586-394.368a.4.4,0,0,1-.071-.644l.225-.322a.426.426,0,0,1,.656-.083,3.506,3.506,0,0,0,.357.244,3.9,3.9,0,0,0,.49.252,3.539,3.539,0,0,0,.6.2,3.016,3.016,0,0,0,.692.078,2.166,2.166,0,0,0,.657-.1,1.788,1.788,0,0,0,.546-.28,1.329,1.329,0,0,0,.378-.454,1.357,1.357,0,0,0,.139-.623,1.127,1.127,0,0,0-.356-.846,3.682,3.682,0,0,0-.895-.615q-.539-.272-1.168-.539a7.439,7.439,0,0,1-1.168-.615,3.258,3.258,0,0,1-.9-.853,2.105,2.105,0,0,1-.357-1.245,2.527,2.527,0,0,1,.189-.964,2.649,2.649,0,0,1,.524-.818,2.963,2.963,0,0,1,.811-.6,3.335,3.335,0,0,1,1.063-.329v-.853a.4.4,0,0,1,.448-.462h.111c.29,0,.435.136.435.405v.9a3.507,3.507,0,0,1,1.273.28,5.28,5.28,0,0,1,.8.434.381.381,0,0,1,.2.272.615.615,0,0,1-.076.357l-.181.349q-.224.392-.644.127a5.382,5.382,0,0,0-.72-.364,2.655,2.655,0,0,0-1.056-.2,2.236,2.236,0,0,0-.72.112,1.734,1.734,0,0,0-.566.315,1.531,1.531,0,0,0-.371.462,1.2,1.2,0,0,0-.132.552,1.046,1.046,0,0,0,.356.81,3.751,3.751,0,0,0,.895.581q.539.258,1.167.51a6.215,6.215,0,0,1,1.169.615,3.355,3.355,0,0,1,.895.881,2.241,2.241,0,0,1,.356,1.3,2.746,2.746,0,0,1-.181,1,2.635,2.635,0,0,1-.517.832,2.854,2.854,0,0,1-.825.608,3.3,3.3,0,0,1-1.118.314v.825q0,.462-.435.462h-.111q-.449,0-.448-.406v-.881a4.439,4.439,0,0,1-.831-.153,4.313,4.313,0,0,1-.686-.259,4.333,4.333,0,0,1-.531-.3C-706.369-394.205-706.494-394.294-706.586-394.368Z" transform="translate(706.788 404.843)"/></g></g></svg>
